<svg width="26" height="26" viewBox="0 0 26 26" fill="none" xmlns="http://www.w3.org/2000/svg">
<g id="Group 28">
<rect id="Rectangle 29" width="26" height="26" rx="4" fill="#42549C"/>
<path id="Ellipse 22" d="M15.9202 12.7046C15.9202 13.9121 15.5767 14.9622 15.0729 15.6836C14.5667 16.4084 13.964 16.7273 13.4122 16.7273C12.8605 16.7273 12.2578 16.4084 11.7516 15.6836C11.2477 14.9622 10.9043 13.9121 10.9043 12.7046C10.9043 11.4972 11.2477 10.447 11.7516 9.7256C12.2578 9.00086 12.8605 8.68188 13.4122 8.68188C13.964 8.68188 14.5667 9.00086 15.0729 9.7256C15.5767 10.447 15.9202 11.4972 15.9202 12.7046Z" stroke="white" stroke-width="2"/>
<path id="Vector 11" d="M4.95215 13.2247C7.63469 8.59594 14.7331 2.11563 21.6664 13.2247C19.0527 17.4596 12.0506 23.3884 4.95215 13.2247Z" stroke="white" stroke-width="2"/>
</g>
</svg>
